<svg xmlns="http://www.w3.org/2000/svg" viewBox="0 0 1500 226.8" style="enable-background:new 0 0 1500 226.8" xml:space="preserve"><path d="M0 168.6v4.8h2.4c1.2 0 7.1-1.2 14.3-1.2s14.3 1.2 15.4 1.2c1.2 0 3.6 0 3.6-1.2s-1.2-2.4-2.4-2.4-7.1-3.6-8.3-8.3c0-4.8 0-10.7 1.2-14.3l19-106.9 65.3 131.8s0 1.2 1.2 1.2 1.2-1.2 1.2-1.2l59.4-130.6s0-1.2 1.2-1.2 1.2 2.4 1.2 2.4l20.2 117.6c0 1.2 0 5.9-1.2 8.3-2.4 3.6-4.8 4.8-4.8 5.9 0 1.2 1.2 1.2 4.8 1.2 1.2 0 9.5-1.2 15.4-1.2 4.8 0 15.4 1.2 19 1.2 2.4 0 3.6 0 3.6-1.2s-1.2-2.4-2.4-2.4-9.5-2.4-11.9-9.5c-2.4-7-2.4-10.6-2.4-10.6L192.4 21.4c0-2.4 0-8.3 3.6-10.7s8.3-3.6 10.7-3.6c2.4 0 2.4-1.2 2.4-2.4s0-2.4-2.4-2.4h-33.2c-1.1 0-2.5 1.3-2.5 2.5s1.2 5.9 1.2 9.5c-1.2 3.6-53.4 120-53.4 120s0 1.2-1.2 1.2-1.2-1.2-1.2-1.2S57 16.6 57 13.1V2.4C57 1.2 55.8 0 54.6 0s-8.3 1.2-10.7 1.2H16.6c-1.2 0-1.2 1.2-1.2 2.4S16.6 4.8 19 6c3.6 0 11.9 4.8 13.1 8.3 1.2 3.6 1.2 8.3 0 13.1 1.2 4.8-21.4 125.9-21.4 125.9s-2.4 8.3-3.6 10.7c-3.5 4.6-7.1 4.6-7.1 4.6M300.5 129.5s-10.7 23.8-10.7 26.1c-1.2 1.2-2.4 4.8-2.4 7.1 0 3.6 1.2 5.9 1.2 8.3 0 1.2 1.2 2.4 0 3.6 0 1.2-2.4 0-3.6 0s-7.1-1.2-10.7-1.2c-3.6 0-13.1 1.2-14.3 2.4-2.4 1.2-2.4 0-3.6-1.2 0-1.2 0-1.2 2.4-2.4s4.8-2.4 8.3-5.9c4.8-3.6 7.1-10.7 7.1-10.7L340.9 4.8s1.2-3.6 2.4-3.6 2.4 1.2 2.4 1.2 60.6 142.5 61.8 146.1c1.2 3.6 4.8 9.5 8.3 14.3 3.6 4.8 9.5 8.3 10.7 8.3 1.2 0 3.6 1.2 2.4 3.6 0 2.4-5.9 0-9.5 0-3.6 0-9.5-1.2-13.1-1.2-3.6 0-13.1 1.2-14.3 1.2-1.2 0-2.4 1.2-3.6 0-1.2-1.2 0-2.4 1.2-3.6s2.4-5.9 2.4-7.1-1.2-5.9-1.2-5.9l-11.9-28.5h-78.4zm4.7-10.7H375.3l-33.3-82s0-1.2-1.2-1.2l-1.2 1.2-34.4 82c0-1.2 0 0 0 0M477.4 2.4c-1.2 0-3.6-1.2-4.8 0-1.2 0-1.2 1.2-1.2 2.4s2.4 2.4 3.6 2.4c1.2 0 8.3 4.8 8.3 10.7v141.3c0 2.4-2.4 8.3-5.9 9.5-2.4 1.2-5.9 2.4-5.9 3.6s0 2.4 3.6 2.4 10.7-1.2 16.6-1.2 11.9 0 15.4 1.2c2.4 0 7.1 1.2 8.3 0 1.2-1.2 1.2-2.4 0-2.4-1.2-1.2-5.9-2.4-7.1-3.6s-3.6-4.8-3.6-8.3V19c0-2.4 0-10.7 17.8-10.7 8.3 0 35.6 4.8 35.6 39.2 0 27.3-20.2 40.4-34.4 40.4h-9.5c0 1.2 1.2 2.4 1.2 2.4 1.2 2.4 29.7 38 33.3 41.6 3.6 4.8 22.6 29.7 38 35.6 4.8 2.4 10.7 4.8 28.5 3.6 2.4 0 2.4-1.2 2.4-2.4 0 0 0-1.2-1.2-1.2s-9.5 0-17.8-4.8-10.7-8.3-17.8-17.8C576 141.3 540.4 95 540.4 95s-2.4-2.4 0-2.4c1.2 0 36.8-9.5 36.8-47.5 0-4.8-1.2-43.9-52.3-43.9-8.3 0-27.3 2.4-30.9 2.4-4.7 0-15.4-1.2-16.6-1.2M624.7 3.6c0-1.2 2.4-1.2 4.8-1.2 1.2 0 10.7 1.2 16.6 1.2s16.6 0 19-1.2c2.4-1.2 4.8 0 4.8 1.2s-2.4 3.6-2.4 3.6c-1.2 1.2-3.6 4.8-3.6 7.1s1.2 4.8 2.4 7.1c1.2 2.4 52.3 117.6 52.3 117.6s0 1.2 1.2 1.2 1.2-2.4 1.2-2.4l62.9-116.4s1.2-1.2 1.2-7.1c0-3.6-1.2-4.8-1.2-5.9-1.2-2.4-3.6-3.6-3.6-4.8 1.2-2.4 3.6-1.2 5.9-1.2h4.8c1.2 0 21.4 1.2 22.6 0 1.2 0 5.9-1.2 5.9 1.2s-1.2 2.4-3.6 3.6c-2.4 1.2-10.7 7.1-19 21.4-2.4 4.8-97.4 181.7-97.4 181.7-2.4 3.6-11.9 16.6-17.8 16.6h-19s9.5-2.4 14.3-7.1c2.4-2.4 5.9-7.1 8.3-11.9 2.4-3.6 21.4-40.4 21.4-40.4s0-1.2-1.2-3.6c-1.2-2.4-58.2-130.6-58.2-130.6 0-1.2-2.4-5.9-5.9-11.9-3.6-4.8-9.5-10.7-11.9-13.1s-4.8-3.5-4.8-4.7M1261.3 3.6c0-1.2 2.4-1.2 4.8-1.2 1.2 0 10.7 1.2 16.6 1.2s16.6 0 19-1.2c2.4-1.2 4.8 0 4.8 1.2s-2.4 3.6-2.4 3.6c-1.2 1.2-3.6 4.8-3.6 7.1s1.2 4.8 2.4 7.1c1.2 2.4 52.3 117.6 52.3 117.6s0 1.2 1.2 1.2 1.2-2.4 1.2-2.4l62.9-117.6s1.2-1.2 1.2-7.1c0-3.6-1.2-4.8-2.4-5.9-1.2-2.4-3.6-3.6-3.6-4.8 1.2-2.4 3.6-1.2 5.9-1.2h4.8c1.2 0 21.4 1.2 22.6 0 1.2 0 5.9-1.2 5.9 1.2s-1.2 2.4-3.6 3.6c-2.4 1.2-10.7 7.1-19 21.4-2.4 4.8-97.4 181.7-97.4 181.7-2.4 3.6-11.9 16.6-17.8 16.6h-19s9.5-2.4 14.3-7.1c2.4-2.4 5.9-7.1 8.3-11.9 2.4-3.6 21.4-40.4 21.4-40.4s0-1.2-1.2-3.6c-1.2-2.4-58.2-130.6-58.2-130.6 0-1.2-2.4-5.9-5.9-11.9-3.6-4.8-9.5-10.7-11.9-13.1-2.4-1.2-3.6-2.3-3.6-3.5M1486.9 32.1v1.2h-3.6s-3.6-4.8-4.8-8.3c-1.2-1.2-2.4-1.2-2.4-1.2h-4.8v10.7h-3.6V10.7h11.9c1.2 0 5.9 1.2 5.9 5.9s-4.8 5.9-4.8 5.9c-1.2 0 0 1.2 0 1.2 1.5 1.2 6.2 8.4 6.2 8.4m-16.6-19v8.3h8.3s3.6 0 3.6-4.8c0-2.4-2.4-3.6-3.6-3.6s-8.3.1-8.3.1M934.7 3.6c0-1.2 1.2-1.2 2.4-1.2s8.3 0 9.5 1.2h16.6c3.5 0 8.3-1.2 10.7-1.2 1.2 0 2.4 0 2.4 1.2s0 1.2-1.2 2.4c-1.2 0-2.4 0-4.8 2.4s-3.6 4.8-3.6 7.1V158c0 3.6 2.4 7.1 3.6 8.3 1.2 2.4 5.9 3.6 5.9 3.6 1.2 0 2.4 1.2 2.4 2.4s-2.4 2.4-3.6 1.2c-2.4 0-11.9-1.2-17.8-1.2s-14.3 0-17.8 1.2c-2.4 0-3.6 0-3.6-1.2s0-2.4 1.2-2.4 4.8-2.4 7.1-3.6c2.4-2.4 3.6-7.1 3.6-8.3V15.4c0-3.6-5.9-7.1-7.1-7.1s-7.1-2.4-5.9-4.7M1131.8 120h68.9s1.2 0 0-1.2-33.3-78.4-33.3-78.4 0-2.4-1.2-2.4-1.2 2.4-1.2 2.4l-33.3 78.4c1.3-1.2.1 1.2.1 1.2M1034.4 2.4c1.2-1.2 4.8 0 7.1 0h16.6c2.3 0 4.8-1.2 7.1-1.2 1.2 0 2.4 0 3.6 2.4 0 1.2-1.2 2.4-3.6 2.4-2.4 0-8.3 2.4-13.1 4.8s-11.9 8.3-14.3 10.7S992.7 69 992.7 69s-2.4 2.4-2.4 3.6c0 1.2 1.2 2.4 1.2 2.4s66.5 78.4 70.1 81.9 14.3 13.1 22.6 13.1c14.3 0 17.8-13.1 20.2-17.8l65.3-147.3s1.2-2.4 2.4-2.4c2.4 0 2.4 2.4 2.4 2.4s62.9 147.3 62.9 148.5c1.2 1.2 2.4 5.9 5.9 10.7 3.6 4.8 9.5 8.3 10.7 8.3 1.2 1.2 2.4 0 2.4 2.4s-3.6 2.4-5.9 1.2-10.7-1.2-15.4-1.2-11.9 0-13.1 1.2c-2.4 1.2-3.6 1.2-4.8 0s0-3.6 1.2-5.9 1.2-7.1 1.2-8.3-11.9-29.7-11.9-29.7h-79.6s-11.9 28.5-13.1 29.7c-1.2 2.4-1.2 4.8 0 7.1s2.4 4.8 2.4 5.9c0 1.2-2.4 1.2-4.8 1.2s-5.9-1.2-9.5-1.2h-17.8c-30.9 0-42.8-17.8-58.2-32.1-5.9-5.9-55.8-61.8-55.8-61.8l-1.2-1.2c0-1.2 1.2-1.2 1.2-1.2s54.6-57 55.8-58.2c2.4-2.4 4.8-4.8 5.9-7.1V4.9c.3-.1.3-1.3 1.4-2.5"/><path d="M1454.9 22.6c0-11.9 9.5-22.6 22.6-22.6s22.6 9.5 22.6 22.6c0 11.9-9.5 22.6-22.6 22.6s-22.6-10.8-22.6-22.6m2.3 0c0 10.7 8.3 19 19 19s19-8.3 19-19-8.3-19-19-19c-10.6 0-19 8.3-19 19"/></svg>